<svg height="512pt" viewBox="0 0 512 512" width="512pt" xmlns="http://www.w3.org/2000/svg" xmlns:xlink="http://www.w3.org/1999/xlink"><linearGradient id="a" gradientUnits="userSpaceOnUse" x1="0" x2="512" y1="256" y2="256"><stop offset="0" stop-color="#00f38d"/><stop offset="1" stop-color="#009eff"/></linearGradient><path d="m512 256c0 141.386719-114.613281 256-256 256s-256-114.613281-256-256 114.613281-256 256-256 256 114.613281 256 256zm0 0" fill="url(#a)"/><g fill="#fff"><path d="m90.953125 393.683594h330.097656v30h-330.097656zm0 0"/><path d="m146.871094 146.390625v223.605469h30v-224.894532l36.929687 36.929688 21.214844-21.214844-72.5-72.5-72.5 72.5 21.214844 21.214844zm0 0"/><path d="m333.839844 146.390625v223.605469h30v-224.894532l36.929687 36.929688 21.214844-21.214844-72.5-72.5-72.5 72.5 21.214844 21.214844zm0 0"/></g></svg>